HIERARCHY
ROOT hip
{
  OFFSET 0.0 0.0 0.0
  CHANNELS 6 Xposition Yposition Zposition Zrotation Yrotation Xrotation
  JOINT abdomen
  {
    OFFSET 0.0 20.6881 -0.73152
    CHANNELS 3 Zrotation Xrotation Yrotation
    JOINT chest
    {
      OFFSET 0.0 11.7043 -0.48768
      CHANNELS 3 Zrotation Xrotation Yrotation
      JOINT neck
      {
        OFFSET 0.0 22.1894 -2.19456
        CHANNELS 3 Zrotation Xrotation Yrotation
        JOINT head
        {
          OFFSET -0.24384 7.07133 1.2192
          CHANNELS 3 Zrotation Xrotation Yrotation
          JOINT leftEye
          {
            OFFSET 4.14528 8.04674 8.04672
            CHANNELS 3 Zrotation Xrotation Yrotation
            End Site
            {
              OFFSET 1.0 0.0 0.0
            }
          }
          JOINT rightEye
          {
            OFFSET -3.6576 8.04674 8.04672
            CHANNELS 3 Zrotation Xrotation Yrotation
            End Site
            {
              OFFSET 1.0 0.0 0.0
            }
          }
        }
      }
      JOINT rCollar
      {
        OFFSET -2.68224 19.2634 -4.8768
        CHANNELS 3 Zrotation Xrotation Yrotation
        JOINT rShldr
        {
          OFFSET -8.77824 -1.95073 1.46304
          CHANNELS 3 Zrotation Xrotation Yrotation
          JOINT rForeArm
          {
            OFFSET -28.1742 -1.7115 0.48768
            CHANNELS 3 Zrotation Xrotation Yrotation
            JOINT rHand
            {
              OFFSET -22.5879 0.773209 7.07136
              CHANNELS 3 Zrotation Xrotation Yrotation
              JOINT rThumb1
              {
                OFFSET -1.2192 -0.487915 3.41376
                CHANNELS 3 Zrotation Xrotation Yrotation
                JOINT rThumb2
                {
                  OFFSET -3.37035 -0.52449 3.41376
                  CHANNELS 3 Zrotation Xrotation Yrotation
                  End Site
                  {
                    OFFSET -1.78271 -1.18214 1.43049
                  }
                }
              }
              JOINT rIndex1
              {
                OFFSET -7.75947 0.938293 5.60832
                CHANNELS 3 Zrotation Xrotation Yrotation
                JOINT rIndex2
                {
                  OFFSET -2.54057 -0.884171 1.56538
                  CHANNELS 3 Zrotation Xrotation Yrotation
                  End Site
                  {
                    OFFSET -1.62519 -0.234802 1.16502
                  }
                }
              }
              JOINT rMid1
              {
                OFFSET -8.24714 1.18213 3.41376
                CHANNELS 3 Zrotation Xrotation Yrotation
                JOINT rMid2
                {
                  OFFSET -3.10165 -0.590103 1.0647
                  CHANNELS 3 Zrotation Xrotation Yrotation
                  End Site
                  {
                    OFFSET -2.48547 -0.328903 0.83742
                  }
                }
              }
              JOINT rRing1
              {
                OFFSET -8.82822 0.546677 1.51678
                CHANNELS 3 Zrotation Xrotation Yrotation
                JOINT rRing2
                {
                  OFFSET -2.60934 -0.819778 -0.0198488
                  CHANNELS 3 Zrotation Xrotation Yrotation
                  End Site
                  {
                    OFFSET -2.33842 -0.294052 0.168128
                  }
                }
              }
              JOINT rPinky1
              {
                OFFSET -8.27202 -0.0477905 -0.4584
                CHANNELS 3 Zrotation Xrotation Yrotation
                JOINT rPinky2
                {
                  OFFSET -1.82734 -0.647385 -0.700984
                  CHANNELS 3 Zrotation Xrotation Yrotation
                  End Site
                  {
                    OFFSET -1.69225 -0.51767 -0.607171
                  }
                }
              }
            }
          }
        }
      }
      JOINT lCollar
      {
        OFFSET 2.68224 19.2634 -4.8768
        CHANNELS 3 Zrotation Xrotation Yrotation
        JOINT lShldr
        {
          OFFSET 8.77824 -1.95073 1.46304
          CHANNELS 3 Zrotation Xrotation Yrotation
          JOINT lForeArm
          {
            OFFSET 28.1742 -1.7115 0.48768
            CHANNELS 3 Zrotation Xrotation Yrotation
            JOINT lHand
            {
              OFFSET 22.5879 0.773209 7.07136
              CHANNELS 3 Zrotation Xrotation Yrotation
              JOINT lThumb1
              {
                OFFSET 1.2192 -0.487915 3.41376
                CHANNELS 3 Zrotation Xrotation Yrotation
                JOINT lThumb2
                {
                  OFFSET 3.37035 -0.52449 3.41376
                  CHANNELS 3 Zrotation Xrotation Yrotation
                  End Site
                  {
                    OFFSET 1.78271 -1.18214 1.43049
                  }
                }
              }
              JOINT lIndex1
              {
                OFFSET 7.75947 0.938293 5.60832
                CHANNELS 3 Zrotation Xrotation Yrotation
                JOINT lIndex2
                {
                  OFFSET 2.54057 -0.884171 1.56538
                  CHANNELS 3 Zrotation Xrotation Yrotation
                  End Site
                  {
                    OFFSET 1.62519 -0.234802 1.16502
                  }
                }
              }
              JOINT lMid1
              {
                OFFSET 8.24714 1.18213 3.41376
                CHANNELS 3 Zrotation Xrotation Yrotation
                JOINT lMid2
                {
                  OFFSET 3.10165 -0.590103 1.0647
                  CHANNELS 3 Zrotation Xrotation Yrotation
                  End Site
                  {
                    OFFSET 2.48547 -0.328903 0.83742
                  }
                }
              }
              JOINT lRing1
              {
                OFFSET 8.82822 0.546677 1.51678
                CHANNELS 3 Zrotation Xrotation Yrotation
                JOINT lRing2
                {
                  OFFSET 2.60934 -0.819778 -0.0198488
                  CHANNELS 3 Zrotation Xrotation Yrotation
                  End Site
                  {
                    OFFSET 2.33842 -0.294052 0.168128
                  }
                }
              }
              JOINT lPinky1
              {
                OFFSET 8.27202 -0.0477905 -0.4584
                CHANNELS 3 Zrotation Xrotation Yrotation
                JOINT lPinky2
                {
                  OFFSET 1.82734 -0.647385 -0.700984
                  CHANNELS 3 Zrotation Xrotation Yrotation
                  End Site
                  {
                    OFFSET 1.69225 -0.51767 -0.607171
                  }
                }
              }
            }
          }
        }
      }
    }
  }
  JOINT rButtock
  {
    OFFSET -8.77824 4.35084 1.2192
    CHANNELS 3 Zrotation Xrotation Yrotation
    JOINT rThigh
    {
      OFFSET 0.0 -1.70687 -2.19456
      CHANNELS 3 Zrotation Xrotation Yrotation
      JOINT rShin
      {
        OFFSET 0.0 -36.8199 0.73152
        CHANNELS 3 Zrotation Xrotation Yrotation
        JOINT rFoot
        {
          OFFSET 0.73152 -45.1104 -5.12064
          CHANNELS 3 Zrotation Xrotation Yrotation
          End Site
          {
            OFFSET -1.1221 -3.69964 12.103
          }
        }
      }
    }
  }
  JOINT lButtock
  {
    OFFSET 8.77824 4.35084 1.2192
    CHANNELS 3 Zrotation Xrotation Yrotation
    JOINT lThigh
    {
      OFFSET 0.0 -1.70687 -2.19456
      CHANNELS 3 Zrotation Xrotation Yrotation
      JOINT lShin
      {
        OFFSET 0.0 -36.8199 0.73152
        CHANNELS 3 Zrotation Xrotation Yrotation
        JOINT lFoot
        {
          OFFSET -0.73152 -45.1104 -5.12064
          CHANNELS 3 Zrotation Xrotation Yrotation
          End Site
          {
            OFFSET 1.1221 -3.69964 12.103
          }
        }
      }
    }
  }
}
MOTION
Frames: 5
Frame Time: 0.00833333
0.0 85.8076 0.0 25.7511 -83.3788 -22.1158 -1.05155 -5.17206 -3.20873 6.52463 -15.8332 -0.302075 -1.62179 2.68231 -0.0584828 1.72871 2.80388 -0.51386 -0.0 0.0 0.0 -0.0 0.0 0.0 0.0 0.0 0.0 0.0 0.0 0.0 0.0 0.0 0.0 -5.17283 -52.5247 -10.5199 1.85661e-09 3.65436e-09 1.87429e-09 3.1192e-09 6.38496e-09 3.30756e-09 1.85661e-09 3.65436e-09 1.87429e-09 7.73091 5.47488 0.417314 1.85661e-09 3.65435e-09 1.87429e-09 2.90554 0.965183 0.102902 1.85661e-09 3.65436e-09 1.8743e-09 10.2786 0.731801 0.0259123 1.85661e-09 3.65436e-09 1.8743e-09 2.22167 -0.733487 -0.20892 0.0 0.0 0.0 0.0 0.0 0.0 0.0 0.0 0.0 1.93023 -36.1358 5.89322 -2.22148e-11 4.59431e-11 -7.49469e-10 -2.36668e-11 1.02805e-10 -1.30223e-09 -2.22186e-11 4.59447e-11 -7.49449e-10 -7.73091 5.47488 -0.417314 -2.22131e-11 4.59439e-11 -7.49469e-10 -2.90554 0.965183 -0.102902 -2.22203e-11 4.59441e-11 -7.49474e-10 -10.2786 0.731801 -0.0259123 -2.22113e-11 4.59455e-11 -7.49487e-10 -2.22167 -0.733487 0.20892 -2.03217e-16 0.0 -3.88251e-19 4.41751 -26.2492 25.1154 -0.00269698 4.49215 0.128315 -12.8257 -28.1234 -27.9862 2.03217e-16 0.0 3.88251e-19 -16.5253 -3.8175 -13.8993 0.0448228 15.233 -0.0126927 0.0473397 -13.4919 8.00212
-1.4718 85.7367 -0.11567099999999997 24.8197 -82.7645 -21.0681 -1.10777 -5.42166 -3.79498 6.83411 -15.975 -0.431801 -1.63134 2.49978 0.0348762 1.49654 3.077 -0.324239 -0.0 0.0 0.0 -0.0 0.0 0.0 0.0 0.0 0.0 0.0 0.0 0.0 0.0 0.0 0.0 -6.94377 -57.4409 -12.6805 2.30651e-09 3.24416e-09 1.48204e-09 3.89529e-09 5.68597e-09 2.65391e-09 2.30651e-09 3.24416e-09 1.48204e-09 7.73091 5.47488 0.417314 2.3065e-09 3.24416e-09 1.48204e-09 2.90554 0.965183 0.102902 2.30651e-09 3.24417e-09 1.48204e-09 10.2786 0.731801 0.0259123 2.3065e-09 3.24416e-09 1.48205e-09 2.22167 -0.733487 -0.20892 0.0 0.0 0.0 0.0 0.0 0.0 0.0 0.0 0.0 2.31264 -38.9547 6.5267 4.74664e-10 -1.03595e-09 6.73424e-10 7.97846e-10 -1.77585e-09 1.16498e-09 4.74661e-10 -1.03595e-09 6.73454e-10 -7.73091 5.47488 -0.417314 4.74667e-10 -1.03595e-09 6.73426e-10 -2.90554 0.965183 -0.102902 4.74661e-10 -1.03595e-09 6.7342e-10 -10.2786 0.731801 -0.0259123 4.7467e-10 -1.03594e-09 6.73409e-10 -2.22167 -0.733487 0.20892 -2.03217e-16 0.0 -3.88251e-19 4.84008 -25.3099 30.1532 0.00629453 3.01293 0.0652438 -15.228 -30.2325 -30.5321 2.03217e-16 0.0 3.88251e-19 -16.0804 -3.21109 -13.3426 0.0515584 15.5359 0.0304518 -0.363831 -13.3664 6.81902
-2.9999800000000008 85.5902 -0.19881 23.2126 -82.1717 -19.4385 -1.16296 -5.64419 -4.34562 7.08988 -16.0848 -0.556049 -1.70012 2.4252 0.0925829 1.08085 3.23785 -0.191894 -0.0 0.0 0.0 -0.0 0.0 0.0 0.0 0.0 0.0 0.0 0.0 0.0 0.0 0.0 0.0 -9.19707 -61.9189 -15.273 2.34285e-09 2.76001e-09 1.21818e-09 3.95953e-09 4.84342e-09 2.20022e-09 2.34285e-09 2.76001e-09 1.21818e-09 7.73091 5.47488 0.417314 2.34285e-09 2.76001e-09 1.21818e-09 2.90554 0.965183 0.102902 2.34286e-09 2.76001e-09 1.21818e-09 10.2786 0.731801 0.0259123 2.34285e-09 2.76001e-09 1.21819e-09 2.22167 -0.733487 -0.20892 0.0 0.0 0.0 0.0 0.0 0.0 0.0 0.0 0.0 2.75895 -41.7956 7.21764 7.50824e-10 -1.558e-09 1.42702e-09 1.2571e-09 -2.68477e-09 2.47326e-09 7.5082e-10 -1.558e-09 1.42705e-09 -7.73091 5.47488 -0.417314 7.50827e-10 -1.558e-09 1.42702e-09 -2.90554 0.965183 -0.102902 7.50822e-10 -1.558e-09 1.42702e-09 -10.2786 0.731801 -0.0259123 7.50832e-10 -1.558e-09 1.42701e-09 -2.22167 -0.733487 0.20892 -2.03217e-16 0.0 -3.88251e-19 5.06643 -24.5602 33.2623 0.00963558 2.31807 0.0289307 -16.4795 -31.2954 -31.7047 2.03217e-16 0.0 3.88251e-19 -15.7293 -2.65834 -12.7989 0.0579748 16.1561 0.0493699 -0.673563 -13.2881 5.848
-4.5970200000000006 85.3463 -0.17594299999999996 21.866 -81.5099 -18.0789 -1.34444 -5.85467 -4.89365 7.32431 -16.1428 -0.678043 -1.85209 2.52057 0.106604 0.427458 3.20831 -0.127309 -0.0 0.0 0.0 -0.0 0.0 0.0 0.0 0.0 0.0 0.0 0.0 0.0 0.0 0.0 0.0 -12.0048 -65.9724 -18.3855 1.66459e-09 2.11296e-09 1.19917e-09 2.79043e-09 3.68757e-09 2.12998e-09 1.66459e-09 2.11296e-09 1.19917e-09 7.73091 5.47488 0.417314 1.66459e-09 2.11296e-09 1.19917e-09 2.90554 0.965183 0.102902 1.6646e-09 2.11296e-09 1.19918e-09 10.2786 0.731801 0.0259123 1.66459e-09 2.11296e-09 1.19919e-09 2.22167 -0.733487 -0.20892 0.0 0.0 0.0 0.0 0.0 0.0 0.0 0.0 0.0 3.29424 -44.7352 7.9998 6.34985e-10 -1.14583e-09 1.11113e-09 1.07153e-09 -1.97525e-09 1.92774e-09 6.3498e-10 -1.14583e-09 1.11116e-09 -7.73091 5.47488 -0.417314 6.34987e-10 -1.14583e-09 1.11114e-09 -2.90554 0.965183 -0.102902 6.34982e-10 -1.14583e-09 1.11113e-09 -10.2786 0.731801 -0.0259123 6.34994e-10 -1.14583e-09 1.11112e-09 -2.22167 -0.733487 0.20892 -2.03217e-16 0.0 -3.88251e-19 5.03343 -24.196 33.9126 0.00978629 2.65595 0.0353975 -15.9626 -31.2017 -30.768 2.03217e-16 0.0 3.88251e-19 -15.6187 -2.1257 -12.2902 0.0647724 17.1611 0.0351844 -0.841692 -13.3577 5.16833
-6.286160000000001 85.0519 -0.09775399999999995 21.1544 -80.7998 -17.3985 -1.6059 -6.05862 -5.45632 7.54402 -16.173 -0.803141 -2.07934 2.71271 0.0859651 -0.406549 3.06014 -0.112774 -0.0 0.0 0.0 -0.0 0.0 0.0 0.0 0.0 0.0 0.0 0.0 0.0 0.0 0.0 0.0 -15.6548 -69.7152 -22.3285 4.87359e-10 1.23156e-09 1.26486e-09 7.62012e-10 2.10341e-09 2.17906e-09 4.87356e-10 1.23156e-09 1.26486e-09 7.73091 5.47488 0.417314 4.87355e-10 1.23156e-09 1.26486e-09 2.90554 0.965183 0.102902 4.87362e-10 1.23156e-09 1.26487e-09 10.2786 0.731801 0.0259123 4.87354e-10 1.23156e-09 1.26488e-09 2.22167 -0.733487 -0.20892 0.0 0.0 0.0 0.0 0.0 0.0 0.0 0.0 0.0 3.92465 -47.7015 8.87691 2.89676e-10 -1.68522e-10 1.87145e-10 5.08911e-10 -2.87574e-10 3.28331e-10 2.89669e-10 -1.68521e-10 1.87163e-10 -7.73091 5.47488 -0.417314 2.89677e-10 -1.68524e-10 1.87149e-10 -2.90554 0.965183 -0.102902 2.8967e-10 -1.68524e-10 1.87142e-10 -10.2786 0.731801 -0.0259123 2.89684e-10 -1.68521e-10 1.87135e-10 -2.22167 -0.733487 0.20892 -2.03217e-16 0.0 -3.88251e-19 4.89181 -24.1695 32.8965 0.0132226 4.00713 0.078602 -14.2805 -30.2751 -28.3714 2.03217e-16 0.0 3.88251e-19 -15.6546 -1.64 -11.7739 0.072907 18.5161 -0.00458422 -0.925899 -13.5574 4.64089
